REM DIRINDEX 1\2,1\3,1\4,1\5
REM DIRNAME folder01,folder02,folder03,folder04,folder05
TITLE ""
FILE "Chapter_09.mp3" MP3
  TRACK 01 AUDIO
    TITLE "0:"
    INDEX 01 00:00:00
  TRACK 02 AUDIO
    TITLE "5:cjc087_2587"
    INDEX 01 00:00:09
  TRACK 03 AUDIO
    TITLE "0:"
    INDEX 01 00:01:62
  TRACK 04 AUDIO
    TITLE "5:cjc087_2588"
    INDEX 01 00:03:23
  TRACK 05 AUDIO
    TITLE "0:"
    INDEX 01 00:05:34
  TRACK 06 AUDIO
    TITLE "4:cjc087_2589"
    INDEX 01 00:06:30
  TRACK 07 AUDIO
    TITLE "3:cjc087_2590"
    INDEX 01 00:08:50
  TRACK 08 AUDIO
    TITLE "0:"
    INDEX 01 00:10:35
  TRACK 09 AUDIO
    TITLE "4:cjc087_2591"
    INDEX 01 00:11:33
  TRACK 10 AUDIO
    TITLE "3:cjc087_2592"
    INDEX 01 00:13:63
  TRACK 11 AUDIO
    TITLE "0:"
    INDEX 01 00:17:14
  TRACK 12 AUDIO
    TITLE "4:cjc087_2593"
    INDEX 01 00:18:13
  TRACK 13 AUDIO
    TITLE "3:cjc087_2594"
    INDEX 01 00:20:20
  TRACK 14 AUDIO
    TITLE "0:"
    INDEX 01 00:22:56
  TRACK 15 AUDIO
    TITLE "4:cjc087_2595"
    INDEX 01 00:23:53
  TRACK 16 AUDIO
    TITLE "3:cjc087_2596"
    INDEX 01 00:26:11
  TRACK 17 AUDIO
    TITLE "0:"
    INDEX 01 00:29:25
  TRACK 18 AUDIO
    TITLE "4:cjc087_2597"
    INDEX 01 00:30:26
  TRACK 19 AUDIO
    TITLE "3:cjc087_2598"
    INDEX 01 00:32:19
  TRACK 20 AUDIO
    TITLE "0:"
    INDEX 01 00:34:55
  TRACK 21 AUDIO
    TITLE "4:cjc087_2599"
    INDEX 01 00:35:57
  TRACK 22 AUDIO
    TITLE "3:cjc087_2600"
    INDEX 01 00:38:45
  TRACK 23 AUDIO
    TITLE "0:"
    INDEX 01 00:42:37
  TRACK 24 AUDIO
    TITLE "4:cjc087_2601"
    INDEX 01 00:43:37
  TRACK 25 AUDIO
    TITLE "3:cjc087_2602"
    INDEX 01 00:45:51
  TRACK 26 AUDIO
    TITLE "0:"
    INDEX 01 00:47:64
  TRACK 27 AUDIO
    TITLE "5:cjc087_2603"
    INDEX 01 00:49:23
  TRACK 28 AUDIO
    TITLE "0:"
    INDEX 01 00:51:44
  TRACK 29 AUDIO
    TITLE "4:cjc087_2604"
    INDEX 01 00:52:39
  TRACK 30 AUDIO
    TITLE "3:cjc087_2605"
    INDEX 01 00:55:04
  TRACK 31 AUDIO
    TITLE "0:"
    INDEX 01 00:57:29
  TRACK 32 AUDIO
    TITLE "4:cjc087_2606"
    INDEX 01 00:58:30
  TRACK 33 AUDIO
    TITLE "3:cjc087_2607"
    INDEX 01 01:00:59
  TRACK 34 AUDIO
    TITLE "0:"
    INDEX 01 01:04:37
  TRACK 35 AUDIO
    TITLE "4:cjc087_2608"
    INDEX 01 01:05:36
  TRACK 36 AUDIO
    TITLE "3:cjc087_2609"
    INDEX 01 01:06:51
  TRACK 37 AUDIO
    TITLE "0:"
    INDEX 01 01:08:54
  TRACK 38 AUDIO
    TITLE "4:cjc087_2610"
    INDEX 01 01:09:52
  TRACK 39 AUDIO
    TITLE "3:cjc087_2611"
    INDEX 01 01:11:64
  TRACK 40 AUDIO
    TITLE "0:"
    INDEX 01 01:14:70
  TRACK 41 AUDIO
    TITLE "4:cjc087_2612"
    INDEX 01 01:16:07
  TRACK 42 AUDIO
    TITLE "3:cjc087_2613"
    INDEX 01 01:18:04
  TRACK 43 AUDIO
    TITLE "0:"
    INDEX 01 01:21:00
  TRACK 44 AUDIO
    TITLE "4:cjc087_2614"
    INDEX 01 01:22:01
  TRACK 45 AUDIO
    TITLE "3:cjc087_2615"
    INDEX 01 01:25:45
  TRACK 46 AUDIO
    TITLE "0:"
    INDEX 01 01:28:37
  TRACK 47 AUDIO
    TITLE "4:cjc087_2616"
    INDEX 01 01:29:35
  TRACK 48 AUDIO
    TITLE "3:cjc087_2617"
    INDEX 01 01:32:15
  TRACK 49 AUDIO
    TITLE "0:"
    INDEX 01 01:35:08
  TRACK 50 AUDIO
    TITLE "2:cjc087_2618"
    INDEX 01 01:36:45
  TRACK 51 AUDIO
    TITLE "0:"
    INDEX 01 01:57:64
  TRACK 52 AUDIO
    TITLE "5:cjc087_2619"
    INDEX 01 01:59:32
  TRACK 53 AUDIO
    TITLE "0:"
    INDEX 01 02:01:48
  TRACK 54 AUDIO
    TITLE "4:cjc087_2620"
    INDEX 01 02:02:46
  TRACK 55 AUDIO
    TITLE "3:cjc087_2621"
    INDEX 01 02:04:55
  TRACK 56 AUDIO
    TITLE "0:"
    INDEX 01 02:06:24
  TRACK 57 AUDIO
    TITLE "4:cjc087_2622"
    INDEX 01 02:07:22
  TRACK 58 AUDIO
    TITLE "3:cjc087_2623"
    INDEX 01 02:09:38
  TRACK 59 AUDIO
    TITLE "0:"
    INDEX 01 02:11:33
  TRACK 60 AUDIO
    TITLE "4:cjc087_2624"
    INDEX 01 02:12:31
  TRACK 61 AUDIO
    TITLE "3:cjc087_2625"
    INDEX 01 02:15:37
  TRACK 62 AUDIO
    TITLE "0:"
    INDEX 01 02:18:21
  TRACK 63 AUDIO
    TITLE "4:cjc087_2626"
    INDEX 01 02:19:21
  TRACK 64 AUDIO
    TITLE "3:cjc087_2627"
    INDEX 01 02:21:43
  TRACK 65 AUDIO
    TITLE "0:"
    INDEX 01 02:24:36
  TRACK 66 AUDIO
    TITLE "4:cjc087_2628"
    INDEX 01 02:25:35
  TRACK 67 AUDIO
    TITLE "3:cjc087_2629"
    INDEX 01 02:27:73
  TRACK 68 AUDIO
    TITLE "0:"
    INDEX 01 02:31:04
  TRACK 69 AUDIO
    TITLE "4:cjc087_2630"
    INDEX 01 02:32:06
  TRACK 70 AUDIO
    TITLE "3:cjc087_2631"
    INDEX 01 02:34:32
  TRACK 71 AUDIO
    TITLE "0:"
    INDEX 01 02:37:07
  TRACK 72 AUDIO
    TITLE "4:cjc087_2632"
    INDEX 01 02:38:05
  TRACK 73 AUDIO
    TITLE "3:cjc087_2633"
    INDEX 01 02:39:73
  TRACK 74 AUDIO
    TITLE "0:"
    INDEX 01 02:44:40
  TRACK 75 AUDIO
    TITLE "5:cjc087_2634"
    INDEX 01 02:45:73
  TRACK 76 AUDIO
    TITLE "0:"
    INDEX 01 02:47:74
  TRACK 77 AUDIO
    TITLE "4:cjc087_2635"
    INDEX 01 02:48:73
  TRACK 78 AUDIO
    TITLE "3:cjc087_2636"
    INDEX 01 02:51:56
  TRACK 79 AUDIO
    TITLE "0:"
    INDEX 01 02:54:41
  TRACK 80 AUDIO
    TITLE "4:cjc087_2637"
    INDEX 01 02:55:40
  TRACK 81 AUDIO
    TITLE "3:cjc087_2638"
    INDEX 01 02:57:39
  TRACK 82 AUDIO
    TITLE "0:"
    INDEX 01 02:59:67
  TRACK 83 AUDIO
    TITLE "4:cjc087_2639"
    INDEX 01 03:00:65
  TRACK 84 AUDIO
    TITLE "3:cjc087_2640"
    INDEX 01 03:02:60
  TRACK 85 AUDIO
    TITLE "0:"
    INDEX 01 03:05:05
  TRACK 86 AUDIO
    TITLE "4:cjc087_2641"
    INDEX 01 03:06:03
  TRACK 87 AUDIO
    TITLE "3:cjc087_2642"
    INDEX 01 03:08:00
  TRACK 88 AUDIO
    TITLE "0:"
    INDEX 01 03:10:32
  TRACK 89 AUDIO
    TITLE "4:cjc087_2643"
    INDEX 01 03:11:27
  TRACK 90 AUDIO
    TITLE "3:cjc087_2644"
    INDEX 01 03:13:28
  TRACK 91 AUDIO
    TITLE "0:"
    INDEX 01 03:15:72
  TRACK 92 AUDIO
    TITLE "4:cjc087_2645"
    INDEX 01 03:16:68
  TRACK 93 AUDIO
    TITLE "3:cjc087_2646"
    INDEX 01 03:18:31
  TRACK 94 AUDIO
    TITLE "0:"
    INDEX 01 03:20:15
  TRACK 95 AUDIO
    TITLE "4:cjc087_2647"
    INDEX 01 03:21:12
  TRACK 96 AUDIO
    TITLE "3:cjc087_2648"
    INDEX 01 03:23:62
  TRACK 97 AUDIO
    TITLE "0:"
    INDEX 01 03:27:56
  TRACK 98 AUDIO
    TITLE "4:cjc087_2649"
    INDEX 01 03:28:55
  TRACK 99 AUDIO
    TITLE "3:cjc087_2650"
    INDEX 01 03:30:23
  TRACK 100 AUDIO
    TITLE "0:"
    INDEX 01 03:32:14
  TRACK 101 AUDIO
    TITLE "5:cjc087_2651"
    INDEX 01 03:33:51
  TRACK 102 AUDIO
    TITLE "0:"
    INDEX 01 03:35:69
  TRACK 103 AUDIO
    TITLE "4:cjc087_2652"
    INDEX 01 03:36:69
  TRACK 104 AUDIO
    TITLE "3:cjc087_2653"
    INDEX 01 03:38:28
  TRACK 105 AUDIO
    TITLE "0:"
    INDEX 01 03:40:15
  TRACK 106 AUDIO
    TITLE "4:cjc087_2654"
    INDEX 01 03:41:15
  TRACK 107 AUDIO
    TITLE "3:cjc087_2655"
    INDEX 01 03:43:37
  TRACK 108 AUDIO
    TITLE "0:"
    INDEX 01 03:46:26
  TRACK 109 AUDIO
    TITLE "4:cjc087_2656"
    INDEX 01 03:47:25
  TRACK 110 AUDIO
    TITLE "3:cjc087_2657"
    INDEX 01 03:49:18
  TRACK 111 AUDIO
    TITLE "0:"
    INDEX 01 03:52:11
  TRACK 112 AUDIO
    TITLE "4:cjc087_2658"
    INDEX 01 03:53:10
  TRACK 113 AUDIO
    TITLE "3:cjc087_2659"
    INDEX 01 03:56:03
  TRACK 114 AUDIO
    TITLE "0:"
    INDEX 01 03:59:28
  TRACK 115 AUDIO
    TITLE "4:cjc087_2660"
    INDEX 01 04:00:26
  TRACK 116 AUDIO
    TITLE "3:cjc087_2661"
    INDEX 01 04:04:37
  TRACK 117 AUDIO
    TITLE "0:"
    INDEX 01 04:09:01
  TRACK 118 AUDIO
    TITLE "4:cjc087_2662"
    INDEX 01 04:09:74
  TRACK 119 AUDIO
    TITLE "3:cjc087_2663"
    INDEX 01 04:14:34
  TRACK 120 AUDIO
    TITLE "0:"
    INDEX 01 04:18:22
  TRACK 121 AUDIO
    TITLE "4:cjc087_2664"
    INDEX 01 04:19:23
  TRACK 122 AUDIO
    TITLE "3:cjc087_2665"
    INDEX 01 04:21:57
  TRACK 123 AUDIO
    TITLE "0:"
    INDEX 01 04:24:56
  TRACK 124 AUDIO
    TITLE "5:cjc087_2666"
    INDEX 01 04:26:16
  TRACK 125 AUDIO
    TITLE "0:"
    INDEX 01 04:28:18
  TRACK 126 AUDIO
    TITLE "4:cjc087_2667"
    INDEX 01 04:29:16
  TRACK 127 AUDIO
    TITLE "3:cjc087_2668"
    INDEX 01 04:31:70
  TRACK 128 AUDIO
    TITLE "0:"
    INDEX 01 04:35:18
  TRACK 129 AUDIO
    TITLE "4:cjc087_2669"
    INDEX 01 04:36:16
  TRACK 130 AUDIO
    TITLE "3:cjc087_2670"
    INDEX 01 04:38:11
  TRACK 131 AUDIO
    TITLE "0:"
    INDEX 01 04:40:74
  TRACK 132 AUDIO
    TITLE "4:cjc087_2671"
    INDEX 01 04:42:01
  TRACK 133 AUDIO
    TITLE "3:cjc087_2672"
    INDEX 01 04:43:73
  TRACK 134 AUDIO
    TITLE "0:"
    INDEX 01 04:45:64
  TRACK 135 AUDIO
    TITLE "4:cjc087_2673"
    INDEX 01 04:46:63
  TRACK 136 AUDIO
    TITLE "3:cjc087_2674"
    INDEX 01 04:48:23
  TRACK 137 AUDIO
    TITLE "0:"
    INDEX 01 04:50:24
  TRACK 138 AUDIO
    TITLE "4:cjc087_2675"
    INDEX 01 04:51:19
  TRACK 139 AUDIO
    TITLE "3:cjc087_2676"
    INDEX 01 04:53:44
  TRACK 140 AUDIO
    TITLE "0:"
    INDEX 01 04:56:11
  TRACK 141 AUDIO
    TITLE "4:cjc087_2677"
    INDEX 01 04:57:10
  TRACK 142 AUDIO
    TITLE "3:cjc087_2678"
    INDEX 01 04:59:31
  TRACK 143 AUDIO
    TITLE "0:"
    INDEX 01 05:02:09
  TRACK 144 AUDIO
    TITLE "4:cjc087_2679"
    INDEX 01 05:03:09
  TRACK 145 AUDIO
    TITLE "3:cjc087_2680"
    INDEX 01 05:05:31
  TRACK 146 AUDIO
    TITLE "0:"
    INDEX 01 05:08:20
  TRACK 147 AUDIO
    TITLE "5:cjc087_2681"
    INDEX 01 05:09:58
  TRACK 148 AUDIO
    TITLE "0:"
    INDEX 01 05:11:65
  TRACK 149 AUDIO
    TITLE "4:cjc087_2682"
    INDEX 01 05:12:65
  TRACK 150 AUDIO
    TITLE "3:cjc087_2683"
    INDEX 01 05:15:10
  TRACK 151 AUDIO
    TITLE "0:"
    INDEX 01 05:17:17
  TRACK 152 AUDIO
    TITLE "4:cjc087_2684"
    INDEX 01 05:18:16
  TRACK 153 AUDIO
    TITLE "3:cjc087_2685"
    INDEX 01 05:20:47
  TRACK 154 AUDIO
    TITLE "0:"
    INDEX 01 05:22:53
  TRACK 155 AUDIO
    TITLE "4:cjc087_2686"
    INDEX 01 05:23:53
  TRACK 156 AUDIO
    TITLE "3:cjc087_2687"
    INDEX 01 05:26:06
  TRACK 157 AUDIO
    TITLE "0:"
    INDEX 01 05:28:50
  TRACK 158 AUDIO
    TITLE "4:cjc087_2688"
    INDEX 01 05:29:49
  TRACK 159 AUDIO
    TITLE "3:cjc087_2689"
    INDEX 01 05:32:16
  TRACK 160 AUDIO
    TITLE "0:"
    INDEX 01 05:35:07
  TRACK 161 AUDIO
    TITLE "4:cjc087_2690"
    INDEX 01 05:36:04
  TRACK 162 AUDIO
    TITLE "3:cjc087_2691"
    INDEX 01 05:38:42
  TRACK 163 AUDIO
    TITLE "0:"
    INDEX 01 05:41:45
  TRACK 164 AUDIO
    TITLE "4:cjc087_2692"
    INDEX 01 05:42:40
  TRACK 165 AUDIO
    TITLE "3:cjc087_2693"
    INDEX 01 05:45:27
  TRACK 166 AUDIO
    TITLE "0:"
    INDEX 01 05:47:67
  TRACK 167 AUDIO
    TITLE "5:cjc087_2694"
    INDEX 01 05:49:29
  TRACK 168 AUDIO
    TITLE "0:"
    INDEX 01 05:51:27
  TRACK 169 AUDIO
    TITLE "4:cjc087_2695"
    INDEX 01 05:52:25
  TRACK 170 AUDIO
    TITLE "3:cjc087_2696"
    INDEX 01 05:54:30
  TRACK 171 AUDIO
    TITLE "0:"
    INDEX 01 05:57:18
  TRACK 172 AUDIO
    TITLE "4:cjc087_2697"
    INDEX 01 05:58:20
  TRACK 173 AUDIO
    TITLE "3:cjc087_2698"
    INDEX 01 06:00:64
  TRACK 174 AUDIO
    TITLE "0:"
    INDEX 01 06:03:23
  TRACK 175 AUDIO
    TITLE "4:cjc087_2699"
    INDEX 01 06:04:28
  TRACK 176 AUDIO
    TITLE "3:cjc087_2700"
    INDEX 01 06:06:33
  TRACK 177 AUDIO
    TITLE "0:"
    INDEX 01 06:09:23
  TRACK 178 AUDIO
    TITLE "4:cjc087_2701"
    INDEX 01 06:10:27
  TRACK 179 AUDIO
    TITLE "3:cjc087_2702"
    INDEX 01 06:12:06
  TRACK 180 AUDIO
    TITLE "0:"
    INDEX 01 06:14:07
  TRACK 181 AUDIO
    TITLE "4:cjc087_2703"
    INDEX 01 06:15:06
  TRACK 182 AUDIO
    TITLE "3:cjc087_2704"
    INDEX 01 06:16:33
  TRACK 183 AUDIO
    TITLE "0:"
    INDEX 01 06:18:34
  TRACK 184 AUDIO
    TITLE "4:cjc087_2705"
    INDEX 01 06:19:32
  TRACK 185 AUDIO
    TITLE "3:cjc087_2706"
    INDEX 01 06:21:13
  TRACK 186 AUDIO
    TITLE "0:"
    INDEX 01 06:22:65
  TRACK 187 AUDIO
    TITLE "4:cjc087_2707"
    INDEX 01 06:23:63
  TRACK 188 AUDIO
    TITLE "3:cjc087_2708"
    INDEX 01 06:26:53
  TRACK 189 AUDIO
    TITLE "0:"
    INDEX 01 06:29:52
  TRACK 190 AUDIO
    TITLE "2:cjc087_2709"
    INDEX 01 06:31:13
  TRACK 191 AUDIO
    TITLE "0:"
    INDEX 01 06:50:34
  TRACK 192 AUDIO
    TITLE "5:cjc087_2710"
    INDEX 01 06:51:69
  TRACK 193 AUDIO
    TITLE "0:"
    INDEX 01 06:54:01
  TRACK 194 AUDIO
    TITLE "4:cjc087_2711"
    INDEX 01 06:54:73
  TRACK 195 AUDIO
    TITLE "3:cjc087_2712"
    INDEX 01 06:56:70
  TRACK 196 AUDIO
    TITLE "0:"
    INDEX 01 06:59:17
  TRACK 197 AUDIO
    TITLE "4:cjc087_2713"
    INDEX 01 07:00:15
  TRACK 198 AUDIO
    TITLE "3:cjc087_2714"
    INDEX 01 07:03:13
  TRACK 199 AUDIO
    TITLE "0:"
    INDEX 01 07:06:45
  TRACK 200 AUDIO
    TITLE "4:cjc087_2715"
    INDEX 01 07:07:42
  TRACK 201 AUDIO
    TITLE "3:cjc087_2716"
    INDEX 01 07:09:24
  TRACK 202 AUDIO
    TITLE "0:"
    INDEX 01 07:11:30
  TRACK 203 AUDIO
    TITLE "4:cjc087_2717"
    INDEX 01 07:12:28
  TRACK 204 AUDIO
    TITLE "3:cjc087_2718"
    INDEX 01 07:14:15
  TRACK 205 AUDIO
    TITLE "0:"
    INDEX 01 07:16:43
  TRACK 206 AUDIO
    TITLE "4:cjc087_2719"
    INDEX 01 07:17:43
  TRACK 207 AUDIO
    TITLE "3:cjc087_2720"
    INDEX 01 07:19:30
  TRACK 208 AUDIO
    TITLE "0:"
    INDEX 01 07:21:31
  TRACK 209 AUDIO
    TITLE "4:cjc087_2721"
    INDEX 01 07:22:28
  TRACK 210 AUDIO
    TITLE "3:cjc087_2722"
    INDEX 01 07:26:61
  TRACK 211 AUDIO
    TITLE "0:"
    INDEX 01 07:30:55
  TRACK 212 AUDIO
    TITLE "5:cjc087_2723"
    INDEX 01 07:32:17
  TRACK 213 AUDIO
    TITLE "0:"
    INDEX 01 07:34:33
  TRACK 214 AUDIO
    TITLE "3:cjc087_2724"
    INDEX 01 07:35:31
  TRACK 215 AUDIO
    TITLE "4:cjc087_2725"
    INDEX 01 07:37:04
  TRACK 216 AUDIO
    TITLE "0:"
    INDEX 01 07:38:59
  TRACK 217 AUDIO
    TITLE "3:cjc087_2726"
    INDEX 01 07:39:52
  TRACK 218 AUDIO
    TITLE "4:cjc087_2727"
    INDEX 01 07:41:55
  TRACK 219 AUDIO
    TITLE "0:"
    INDEX 01 07:43:74
  TRACK 220 AUDIO
    TITLE "3:cjc087_2728"
    INDEX 01 07:44:69
  TRACK 221 AUDIO
    TITLE "4:cjc087_2729"
    INDEX 01 07:46:64
  TRACK 222 AUDIO
    TITLE "0:"
    INDEX 01 07:48:43
  TRACK 223 AUDIO
    TITLE "3:cjc087_2730"
    INDEX 01 07:49:41
  TRACK 224 AUDIO
    TITLE "4:cjc087_2731"
    INDEX 01 07:52:06
  TRACK 225 AUDIO
    TITLE "0:"
    INDEX 01 07:55:26
  TRACK 226 AUDIO
    TITLE "3:cjc087_2732"
    INDEX 01 07:56:23
  TRACK 227 AUDIO
    TITLE "4:cjc087_2733"
    INDEX 01 07:57:72
  TRACK 228 AUDIO
    TITLE "0:"
    INDEX 01 08:00:01
  TRACK 229 AUDIO
    TITLE "3:cjc087_2734"
    INDEX 01 08:00:74
  TRACK 230 AUDIO
    TITLE "4:cjc087_2735"
    INDEX 01 08:02:57
  TRACK 231 AUDIO
    TITLE "0:"
    INDEX 01 08:05:26
  TRACK 232 AUDIO
    TITLE "3:cjc087_2736"
    INDEX 01 08:06:26
  TRACK 233 AUDIO
    TITLE "4:cjc087_2737"
    INDEX 01 08:08:11
  TRACK 234 AUDIO
    TITLE "0:"
    INDEX 01 08:09:55
  TRACK 235 AUDIO
    TITLE "5:cjc087_2738"
    INDEX 01 08:11:13
  TRACK 236 AUDIO
    TITLE "0:"
    INDEX 01 08:13:24
  TRACK 237 AUDIO
    TITLE "4:cjc087_2739"
    INDEX 01 08:14:19
  TRACK 238 AUDIO
    TITLE "3:cjc087_2740"
    INDEX 01 08:16:59
  TRACK 239 AUDIO
    TITLE "0:"
    INDEX 01 08:19:36
  TRACK 240 AUDIO
    TITLE "4:cjc087_2741"
    INDEX 01 08:20:36
  TRACK 241 AUDIO
    TITLE "3:cjc087_2742"
    INDEX 01 08:23:01
  TRACK 242 AUDIO
    TITLE "0:"
    INDEX 01 08:25:13
  TRACK 243 AUDIO
    TITLE "4:cjc087_2743"
    INDEX 01 08:26:11
  TRACK 244 AUDIO
    TITLE "3:cjc087_2744"
    INDEX 01 08:28:45
  TRACK 245 AUDIO
    TITLE "0:"
    INDEX 01 08:30:30
  TRACK 246 AUDIO
    TITLE "4:cjc087_2745"
    INDEX 01 08:31:27
  TRACK 247 AUDIO
    TITLE "3:cjc087_2746"
    INDEX 01 08:33:66
  TRACK 248 AUDIO
    TITLE "0:"
    INDEX 01 08:36:29
  TRACK 249 AUDIO
    TITLE "4:cjc087_2747"
    INDEX 01 08:37:26
  TRACK 250 AUDIO
    TITLE "3:cjc087_2748"
    INDEX 01 08:39:15
  TRACK 251 AUDIO
    TITLE "0:"
    INDEX 01 08:41:20
  TRACK 252 AUDIO
    TITLE "4:cjc087_2749"
    INDEX 01 08:42:16
  TRACK 253 AUDIO
    TITLE "3:cjc087_2750"
    INDEX 01 08:44:05
  TRACK 254 AUDIO
    TITLE "0:"
    INDEX 01 08:45:63
  TRACK 255 AUDIO
    TITLE "5:cjc087_2751"
    INDEX 01 08:47:23
  TRACK 256 AUDIO
    TITLE "0:"
    INDEX 01 08:49:37
  TRACK 257 AUDIO
    TITLE "4:cjc087_2752"
    INDEX 01 08:50:31
  TRACK 258 AUDIO
    TITLE "3:cjc087_2753"
    INDEX 01 08:53:06
  TRACK 259 AUDIO
    TITLE "0:"
    INDEX 01 08:57:05
  TRACK 260 AUDIO
    TITLE "4:cjc087_2754"
    INDEX 01 08:58:03
  TRACK 261 AUDIO
    TITLE "3:cjc087_2755"
    INDEX 01 09:00:51
  TRACK 262 AUDIO
    TITLE "0:"
    INDEX 01 09:03:16
  TRACK 263 AUDIO
    TITLE "4:cjc087_2756"
    INDEX 01 09:04:17
  TRACK 264 AUDIO
    TITLE "3:cjc087_2757"
    INDEX 01 09:07:33
  TRACK 265 AUDIO
    TITLE "0:"
    INDEX 01 09:10:47
  TRACK 266 AUDIO
    TITLE "4:cjc087_2758"
    INDEX 01 09:11:47
  TRACK 267 AUDIO
    TITLE "3:cjc087_2759"
    INDEX 01 09:13:36
  TRACK 268 AUDIO
    TITLE "0:"
    INDEX 01 09:15:27
  TRACK 269 AUDIO
    TITLE "4:cjc087_2760"
    INDEX 01 09:16:22
  TRACK 270 AUDIO
    TITLE "3:cjc087_2761"
    INDEX 01 09:18:72
  TRACK 271 AUDIO
    TITLE "0:"
    INDEX 01 09:22:25
  TRACK 272 AUDIO
    TITLE "5:cjc087_2762"
    INDEX 01 09:23:62
  TRACK 273 AUDIO
    TITLE "0:"
    INDEX 01 09:25:74
  TRACK 274 AUDIO
    TITLE "4:cjc087_2763"
    INDEX 01 09:26:70
  TRACK 275 AUDIO
    TITLE "3:cjc087_2764"
    INDEX 01 09:29:19
  TRACK 276 AUDIO
    TITLE "0:"
    INDEX 01 09:31:39
  TRACK 277 AUDIO
    TITLE "4:cjc087_2765"
    INDEX 01 09:32:39
  TRACK 278 AUDIO
    TITLE "3:cjc087_2766"
    INDEX 01 09:34:57
  TRACK 279 AUDIO
    TITLE "0:"
    INDEX 01 09:37:62
  TRACK 280 AUDIO
    TITLE "4:cjc087_2767"
    INDEX 01 09:38:61
  TRACK 281 AUDIO
    TITLE "3:cjc087_2768"
    INDEX 01 09:40:38
  TRACK 282 AUDIO
    TITLE "0:"
    INDEX 01 09:42:47
  TRACK 283 AUDIO
    TITLE "4:cjc087_2769"
    INDEX 01 09:43:47
  TRACK 284 AUDIO
    TITLE "3:cjc087_2770"
    INDEX 01 09:45:59
  TRACK 285 AUDIO
    TITLE "0:"
    INDEX 01 09:48:30
  TRACK 286 AUDIO
    TITLE "4:cjc087_2771"
    INDEX 01 09:49:28
  TRACK 287 AUDIO
    TITLE "3:cjc087_2772"
    INDEX 01 09:51:27
  TRACK 288 AUDIO
    TITLE "0:"
    INDEX 01 09:52:67
  TRACK 289 AUDIO
    TITLE "4:cjc087_2773"
    INDEX 01 09:53:63
  TRACK 290 AUDIO
    TITLE "3:cjc087_2774"
    INDEX 01 09:55:56
  TRACK 291 AUDIO
    TITLE "0:"
    INDEX 01 09:57:58
  TRACK 292 AUDIO
    TITLE "4:cjc087_2775"
    INDEX 01 09:58:56
  TRACK 293 AUDIO
    TITLE "3:cjc087_2776"
    INDEX 01 10:00:72
  TRACK 294 AUDIO
    TITLE "0:"
    INDEX 01 10:03:67
  TRACK 295 AUDIO
    TITLE "5:cjc087_2777"
    INDEX 01 10:05:34
  TRACK 296 AUDIO
    TITLE "0:"
    INDEX 01 10:07:33
  TRACK 297 AUDIO
    TITLE "4:cjc087_2778"
    INDEX 01 10:08:29
  TRACK 298 AUDIO
    TITLE "3:cjc087_2779"
    INDEX 01 10:11:33
  TRACK 299 AUDIO
    TITLE "0:"
    INDEX 01 10:14:16
  TRACK 300 AUDIO
    TITLE "4:cjc087_2780"
    INDEX 01 10:15:15
  TRACK 301 AUDIO
    TITLE "3:cjc087_2781"
    INDEX 01 10:17:20
  TRACK 302 AUDIO
    TITLE "0:"
    INDEX 01 10:19:27
  TRACK 303 AUDIO
    TITLE "4:cjc087_2782"
    INDEX 01 10:20:24
  TRACK 304 AUDIO
    TITLE "3:cjc087_2783"
    INDEX 01 10:23:09
  TRACK 305 AUDIO
    TITLE "0:"
    INDEX 01 10:25:63
  TRACK 306 AUDIO
    TITLE "4:cjc087_2784"
    INDEX 01 10:26:62
  TRACK 307 AUDIO
    TITLE "3:cjc087_2785"
    INDEX 01 10:29:55
  TRACK 308 AUDIO
    TITLE "0:"
    INDEX 01 10:32:20
  TRACK 309 AUDIO
    TITLE "4:cjc087_2786"
    INDEX 01 10:33:17
  TRACK 310 AUDIO
    TITLE "3:cjc087_2787"
    INDEX 01 10:35:02
  TRACK 311 AUDIO
    TITLE "0:"
    INDEX 01 10:37:15
  TRACK 312 AUDIO
    TITLE "4:cjc087_2788"
    INDEX 01 10:38:10
  TRACK 313 AUDIO
    TITLE "3:cjc087_2789"
    INDEX 01 10:40:05
  TRACK 314 AUDIO
    TITLE "0:"
    INDEX 01 10:42:06
  TRACK 315 AUDIO
    TITLE "4:cjc087_2790"
    INDEX 01 10:43:04
  TRACK 316 AUDIO
    TITLE "3:cjc087_2791"
    INDEX 01 10:44:68
  TRACK 317 AUDIO
    TITLE "0:"
    INDEX 01 10:47:00
  TRACK 318 AUDIO
    TITLE "2:cjc087_2792"
    INDEX 01 10:48:32
  TRACK 319 AUDIO
    TITLE "0:"
    INDEX 01 11:13:07
  TRACK 320 AUDIO
    TITLE "5:cjc087_2793"
    INDEX 01 11:14:38
  TRACK 321 AUDIO
    TITLE "0:"
    INDEX 01 11:16:56
  TRACK 322 AUDIO
    TITLE "4:cjc087_2794"
    INDEX 01 11:17:54
  TRACK 323 AUDIO
    TITLE "3:cjc087_2795"
    INDEX 01 11:19:00
  TRACK 324 AUDIO
    TITLE "0:"
    INDEX 01 11:21:36
  TRACK 325 AUDIO
    TITLE "4:cjc087_2796"
    INDEX 01 11:22:31
  TRACK 326 AUDIO
    TITLE "3:cjc087_2797"
    INDEX 01 11:24:14
  TRACK 327 AUDIO
    TITLE "0:"
    INDEX 01 11:26:74
  TRACK 328 AUDIO
    TITLE "4:cjc087_2798"
    INDEX 01 11:27:72
  TRACK 329 AUDIO
    TITLE "3:cjc087_2799"
    INDEX 01 11:30:44
  TRACK 330 AUDIO
    TITLE "0:"
    INDEX 01 11:32:67
  TRACK 331 AUDIO
    TITLE "4:cjc087_2800"
    INDEX 01 11:33:64
  TRACK 332 AUDIO
    TITLE "3:cjc087_2801"
    INDEX 01 11:35:18
  TRACK 333 AUDIO
    TITLE "0:"
    INDEX 01 11:37:09
  TRACK 334 AUDIO
    TITLE "4:cjc087_2802"
    INDEX 01 11:38:09
  TRACK 335 AUDIO
    TITLE "3:cjc087_2803"
    INDEX 01 11:40:45
  TRACK 336 AUDIO
    TITLE "0:"
    INDEX 01 11:42:69
  TRACK 337 AUDIO
    TITLE "4:cjc087_2804"
    INDEX 01 11:43:69
  TRACK 338 AUDIO
    TITLE "3:cjc087_2805"
    INDEX 01 11:45:32
  TRACK 339 AUDIO
    TITLE "0:"
    INDEX 01 11:47:47
  TRACK 340 AUDIO
    TITLE "4:cjc087_2806"
    INDEX 01 11:48:44
  TRACK 341 AUDIO
    TITLE "3:cjc087_2807"
    INDEX 01 11:51:13
  TRACK 342 AUDIO
    TITLE "0:"
    INDEX 01 11:53:34
  TRACK 343 AUDIO
    TITLE "5:cjc087_2808"
    INDEX 01 11:54:68
  TRACK 344 AUDIO
    TITLE "0:"
    INDEX 01 11:57:00
  TRACK 345 AUDIO
    TITLE "4:cjc087_2809"
    INDEX 01 11:57:67
  TRACK 346 AUDIO
    TITLE "3:cjc087_2810"
    INDEX 01 12:00:12
  TRACK 347 AUDIO
    TITLE "0:"
    INDEX 01 12:02:60
  TRACK 348 AUDIO
    TITLE "4:cjc087_2811"
    INDEX 01 12:03:58
  TRACK 349 AUDIO
    TITLE "3:cjc087_2812"
    INDEX 01 12:05:58
  TRACK 350 AUDIO
    TITLE "0:"
    INDEX 01 12:08:12
  TRACK 351 AUDIO
    TITLE "4:cjc087_2813"
    INDEX 01 12:09:13
  TRACK 352 AUDIO
    TITLE "3:cjc087_2814"
    INDEX 01 12:11:32
  TRACK 353 AUDIO
    TITLE "0:"
    INDEX 01 12:14:12
  TRACK 354 AUDIO
    TITLE "4:cjc087_2815"
    INDEX 01 12:15:14
  TRACK 355 AUDIO
    TITLE "3:cjc087_2816"
    INDEX 01 12:17:26
  TRACK 356 AUDIO
    TITLE "0:"
    INDEX 01 12:19:37
  TRACK 357 AUDIO
    TITLE "4:cjc087_2817"
    INDEX 01 12:20:35
  TRACK 358 AUDIO
    TITLE "3:cjc087_2818"
    INDEX 01 12:22:14
  TRACK 359 AUDIO
    TITLE "0:"
    INDEX 01 12:24:05
  TRACK 360 AUDIO
    TITLE "4:cjc087_2819"
    INDEX 01 12:25:02
  TRACK 361 AUDIO
    TITLE "3:cjc087_2820"
    INDEX 01 12:27:39
  TRACK 362 AUDIO
    TITLE "0:"
    INDEX 01 12:29:59
  TRACK 363 AUDIO
    TITLE "4:cjc087_2821"
    INDEX 01 12:30:56
  TRACK 364 AUDIO
    TITLE "3:cjc087_2822"
    INDEX 01 12:33:12
  TRACK 365 AUDIO
    TITLE "0:"
    INDEX 01 12:35:52
  TRACK 366 AUDIO
    TITLE "5:cjc087_2823"
    INDEX 01 12:37:13
  TRACK 367 AUDIO
    TITLE "0:"
    INDEX 01 12:39:24
  TRACK 368 AUDIO
    TITLE "4:cjc087_2824"
    INDEX 01 12:40:22
  TRACK 369 AUDIO
    TITLE "3:cjc087_2825"
    INDEX 01 12:42:48
  TRACK 370 AUDIO
    TITLE "0:"
    INDEX 01 12:44:47
  TRACK 371 AUDIO
    TITLE "4:cjc087_2826"
    INDEX 01 12:45:40
  TRACK 372 AUDIO
    TITLE "3:cjc087_2827"
    INDEX 01 12:47:12
  TRACK 373 AUDIO
    TITLE "0:"
    INDEX 01 12:49:30
  TRACK 374 AUDIO
    TITLE "4:cjc087_2828"
    INDEX 01 12:50:28
  TRACK 375 AUDIO
    TITLE "3:cjc087_2829"
    INDEX 01 12:52:35
  TRACK 376 AUDIO
    TITLE "0:"
    INDEX 01 12:55:33
  TRACK 377 AUDIO
    TITLE "4:cjc087_2830"
    INDEX 01 12:56:32
  TRACK 378 AUDIO
    TITLE "3:cjc087_2831"
    INDEX 01 12:58:14
  TRACK 379 AUDIO
    TITLE "0:"
    INDEX 01 13:00:26
  TRACK 380 AUDIO
    TITLE "4:cjc087_2832"
    INDEX 01 13:01:24
  TRACK 381 AUDIO
    TITLE "3:cjc087_2833"
    INDEX 01 13:03:50
  TRACK 382 AUDIO
    TITLE "0:"
    INDEX 01 13:06:11
  TRACK 383 AUDIO
    TITLE "4:cjc087_2834"
    INDEX 01 13:07:09
  TRACK 384 AUDIO
    TITLE "3:cjc087_2835"
    INDEX 01 13:08:55
  TRACK 385 AUDIO
    TITLE "0:"
    INDEX 01 13:10:64
  TRACK 386 AUDIO
    TITLE "4:cjc087_2836"
    INDEX 01 13:11:57
  TRACK 387 AUDIO
    TITLE "3:cjc087_2837"
    INDEX 01 13:14:22
  TRACK 388 AUDIO
    TITLE "0:"
    INDEX 01 13:17:07
  TRACK 389 AUDIO
    TITLE "5:cjc087_2838"
    INDEX 01 13:18:40
  TRACK 390 AUDIO
    TITLE "0:"
    INDEX 01 13:20:58
  TRACK 391 AUDIO
    TITLE "3:cjc087_2839"
    INDEX 01 13:21:56
  TRACK 392 AUDIO
    TITLE "4:cjc087_2840"
    INDEX 01 13:23:64
  TRACK 393 AUDIO
    TITLE "0:"
    INDEX 01 13:24:74
  TRACK 394 AUDIO
    TITLE "3:cjc087_2841"
    INDEX 01 13:25:73
  TRACK 395 AUDIO
    TITLE "4:cjc087_2842"
    INDEX 01 13:29:28
  TRACK 396 AUDIO
    TITLE "0:"
    INDEX 01 13:32:36
  TRACK 397 AUDIO
    TITLE "3:cjc087_2843"
    INDEX 01 13:33:28
  TRACK 398 AUDIO
    TITLE "4:cjc087_2844"
    INDEX 01 13:35:05
  TRACK 399 AUDIO
    TITLE "0:"
    INDEX 01 13:36:26
  TRACK 400 AUDIO
    TITLE "3:cjc087_2845"
    INDEX 01 13:37:25
  TRACK 401 AUDIO
    TITLE "4:cjc087_2846"
    INDEX 01 13:39:01
  TRACK 402 AUDIO
    TITLE "0:"
    INDEX 01 13:40:55
  TRACK 403 AUDIO
    TITLE "3:cjc087_2847"
    INDEX 01 13:41:51
  TRACK 404 AUDIO
    TITLE "4:cjc087_2848"
    INDEX 01 13:44:47
  TRACK 405 AUDIO
    TITLE "0:"
    INDEX 01 13:46:64
  TRACK 406 AUDIO
    TITLE "3:cjc087_2849"
    INDEX 01 13:47:57
  TRACK 407 AUDIO
    TITLE "4:cjc087_2850"
    INDEX 01 13:50:18
  TRACK 408 AUDIO
    TITLE "0:"
    INDEX 01 13:52:13
  TRACK 409 AUDIO
    TITLE "3:cjc087_2851"
    INDEX 01 13:53:11
  TRACK 410 AUDIO
    TITLE "4:cjc087_2852"
    INDEX 01 13:56:01
  TRACK 411 AUDIO
    TITLE "0:"
    INDEX 01 13:58:39
  TRACK 412 AUDIO
    TITLE "5:cjc087_2853"
    INDEX 01 13:59:74
  TRACK 413 AUDIO
    TITLE "0:"
    INDEX 01 14:02:06
  TRACK 414 AUDIO
    TITLE "4:cjc087_2854"
    INDEX 01 14:03:03
  TRACK 415 AUDIO
    TITLE "3:cjc087_2855"
    INDEX 01 14:05:08
  TRACK 416 AUDIO
    TITLE "0:"
    INDEX 01 14:07:21
  TRACK 417 AUDIO
    TITLE "4:cjc087_2856"
    INDEX 01 14:08:18
  TRACK 418 AUDIO
    TITLE "3:cjc087_2857"
    INDEX 01 14:10:31
  TRACK 419 AUDIO
    TITLE "0:"
    INDEX 01 14:13:00
  TRACK 420 AUDIO
    TITLE "4:cjc087_2858"
    INDEX 01 14:14:01
  TRACK 421 AUDIO
    TITLE "3:cjc087_2859"
    INDEX 01 14:15:38
  TRACK 422 AUDIO
    TITLE "0:"
    INDEX 01 14:17:17
  TRACK 423 AUDIO
    TITLE "4:cjc087_2860"
    INDEX 01 14:18:15
  TRACK 424 AUDIO
    TITLE "3:cjc087_2861"
    INDEX 01 14:20:21
  TRACK 425 AUDIO
    TITLE "0:"
    INDEX 01 14:22:18
  TRACK 426 AUDIO
    TITLE "4:cjc087_2862"
    INDEX 01 14:23:18
  TRACK 427 AUDIO
    TITLE "3:cjc087_2863"
    INDEX 01 14:26:02
  TRACK 428 AUDIO
    TITLE "0:"
    INDEX 01 14:29:42
  TRACK 429 AUDIO
    TITLE "4:cjc087_2864"
    INDEX 01 14:30:41
  TRACK 430 AUDIO
    TITLE "3:cjc087_2865"
    INDEX 01 14:32:56
  TRACK 431 AUDIO
    TITLE "0:"
    INDEX 01 14:35:68
  TRACK 432 AUDIO
    TITLE "5:cjc087_2866"
    INDEX 01 14:37:30
  TRACK 433 AUDIO
    TITLE "0:"
    INDEX 01 14:39:40
  TRACK 434 AUDIO
    TITLE "3:cjc087_2867"
    INDEX 01 14:40:38
  TRACK 435 AUDIO
    TITLE "4:cjc087_2868"
    INDEX 01 14:42:70
  TRACK 436 AUDIO
    TITLE "0:"
    INDEX 01 14:45:72
  TRACK 437 AUDIO
    TITLE "3:cjc087_2869"
    INDEX 01 14:46:72
  TRACK 438 AUDIO
    TITLE "4:cjc087_2870"
    INDEX 01 14:49:09
  TRACK 439 AUDIO
    TITLE "0:"
    INDEX 01 14:50:64
  TRACK 440 AUDIO
    TITLE "3:cjc087_2871"
    INDEX 01 14:51:63
  TRACK 441 AUDIO
    TITLE "4:cjc087_2872"
    INDEX 01 14:53:66
  TRACK 442 AUDIO
    TITLE "0:"
    INDEX 01 14:56:25
  TRACK 443 AUDIO
    TITLE "3:cjc087_2873"
    INDEX 01 14:57:22
  TRACK 444 AUDIO
    TITLE "4:cjc087_2874"
    INDEX 01 14:59:06
  TRACK 445 AUDIO
    TITLE "0:"
    INDEX 01 15:00:42
  TRACK 446 AUDIO
    TITLE "3:cjc087_2875"
    INDEX 01 15:01:40
  TRACK 447 AUDIO
    TITLE "4:cjc087_2876"
    INDEX 01 15:03:21
  TRACK 448 AUDIO
    TITLE "0:"
    INDEX 01 15:04:62
  TRACK 449 AUDIO
    TITLE "3:cjc087_2877"
    INDEX 01 15:05:59
  TRACK 450 AUDIO
    TITLE "4:cjc087_2878"
    INDEX 01 15:10:35
  TRACK 451 AUDIO
    TITLE "0:"
    INDEX 01 15:14:11
  TRACK 452 AUDIO
    TITLE "2:cjc087_2879"
    INDEX 01 15:15:44
  TRACK 453 AUDIO
    TITLE "0:"
    INDEX 01 15:30:02
  TRACK 454 AUDIO
    TITLE "5:cjc087_2880"
    INDEX 01 15:31:41
  TRACK 455 AUDIO
    TITLE "0:"
    INDEX 01 15:33:52
  TRACK 456 AUDIO
    TITLE "4:cjc087_2881"
    INDEX 01 15:34:51
  TRACK 457 AUDIO
    TITLE "3:cjc087_2882"
    INDEX 01 15:36:40
  TRACK 458 AUDIO
    TITLE "0:"
    INDEX 01 15:38:29
  TRACK 459 AUDIO
    TITLE "4:cjc087_2883"
    INDEX 01 15:39:27
  TRACK 460 AUDIO
    TITLE "3:cjc087_2884"
    INDEX 01 15:41:16
  TRACK 461 AUDIO
    TITLE "0:"
    INDEX 01 15:43:27
  TRACK 462 AUDIO
    TITLE "4:cjc087_2885"
    INDEX 01 15:44:26
  TRACK 463 AUDIO
    TITLE "3:cjc087_2886"
    INDEX 01 15:46:44
  TRACK 464 AUDIO
    TITLE "0:"
    INDEX 01 15:48:14
  TRACK 465 AUDIO
    TITLE "4:cjc087_2887"
    INDEX 01 15:49:11
  TRACK 466 AUDIO
    TITLE "3:cjc087_2888"
    INDEX 01 15:50:58
  TRACK 467 AUDIO
    TITLE "0:"
    INDEX 01 15:52:69
  TRACK 468 AUDIO
    TITLE "4:cjc087_2889"
    INDEX 01 15:53:68
  TRACK 469 AUDIO
    TITLE "3:cjc087_2890"
    INDEX 01 15:56:15
  TRACK 470 AUDIO
    TITLE "0:"
    INDEX 01 15:58:10
  TRACK 471 AUDIO
    TITLE "4:cjc087_2891"
    INDEX 01 15:59:12
  TRACK 472 AUDIO
    TITLE "3:cjc087_2892"
    INDEX 01 16:01:01
  TRACK 473 AUDIO
    TITLE "0:"
    INDEX 01 16:03:23
  TRACK 474 AUDIO
    TITLE "4:cjc087_2893"
    INDEX 01 16:04:23
  TRACK 475 AUDIO
    TITLE "3:cjc087_2894"
    INDEX 01 16:05:67
  TRACK 476 AUDIO
    TITLE "0:"
    INDEX 01 16:08:40
  TRACK 477 AUDIO
    TITLE "5:cjc087_2895"
    INDEX 01 16:10:02
  TRACK 478 AUDIO
    TITLE "0:"
    INDEX 01 16:12:22
  TRACK 479 AUDIO
    TITLE "3:cjc087_2896"
    INDEX 01 16:13:14
  TRACK 480 AUDIO
    TITLE "4:cjc087_2897"
    INDEX 01 16:15:03
  TRACK 481 AUDIO
    TITLE "0:"
    INDEX 01 16:16:42
  TRACK 482 AUDIO
    TITLE "3:cjc087_2898"
    INDEX 01 16:17:37
  TRACK 483 AUDIO
    TITLE "4:cjc087_2899"
    INDEX 01 16:18:66
  TRACK 484 AUDIO
    TITLE "0:"
    INDEX 01 16:20:04
  TRACK 485 AUDIO
    TITLE "3:cjc087_2900"
    INDEX 01 16:21:04
  TRACK 486 AUDIO
    TITLE "4:cjc087_2901"
    INDEX 01 16:22:72
  TRACK 487 AUDIO
    TITLE "0:"
    INDEX 01 16:24:37
  TRACK 488 AUDIO
    TITLE "3:cjc087_2902"
    INDEX 01 16:25:37
  TRACK 489 AUDIO
    TITLE "4:cjc087_2903"
    INDEX 01 16:27:20
  TRACK 490 AUDIO
    TITLE "0:"
    INDEX 01 16:29:38
  TRACK 491 AUDIO
    TITLE "3:cjc087_2904"
    INDEX 01 16:30:36
  TRACK 492 AUDIO
    TITLE "4:cjc087_2905"
    INDEX 01 16:33:24
  TRACK 493 AUDIO
    TITLE "0:"
    INDEX 01 16:35:39
  TRACK 494 AUDIO
    TITLE "3:cjc087_2906"
    INDEX 01 16:36:36
  TRACK 495 AUDIO
    TITLE "4:cjc087_2907"
    INDEX 01 16:38:43
  TRACK 496 AUDIO
    TITLE "0:"
    INDEX 01 16:41:06
